<svg xmlns="http://www.w3.org/2000/svg" viewBox="0 0 255.12 175.12"><defs><style>.cls-1{fill:#5f259f;}.cls-2{fill:#ff595a;}</style></defs><title>Asset 1</title><g id="Layer_2" data-name="Layer 2"><g id="Artwork"><circle class="cls-1" cx="127.56" cy="42.52" r="42.52"/><path class="cls-2" d="M170.08,78.34V6.69c0-11.82-17.08-3.46-21.26-1a42.53,42.53,0,0,0,0,73.65C153.21,81.83,170.08,90.19,170.08,78.34Z"/><polygon class="cls-1" points="13.63 163.72 17.43 163.72 17.43 174.93 18.9 174.93 18.9 163.72 22.69 163.72 22.69 162.32 13.63 162.32 13.63 163.72"/><path class="cls-1" d="M30.85,162.32H29.52l-4.9,12.61h1.54l1.17-3.07H33l1.17,3.07h1.55l-4.82-12.44Zm-3,8.14,2.3-6,2.3,6Z"/><polygon class="cls-1" points="49.97 162.31 47.97 162.31 42.46 167.58 42.46 162.31 41.01 162.31 41.01 174.93 42.46 174.93 42.46 169.35 48.14 174.93 50.13 174.93 43.58 168.45 49.97 162.31"/><polygon class="cls-1" points="55.95 169.27 61.47 169.27 61.47 167.87 55.95 167.87 55.95 163.72 61.9 163.72 61.9 162.31 54.5 162.31 54.5 174.93 61.99 174.93 61.99 173.53 55.95 173.53 55.95 169.27"/><path class="cls-1" d="M79.91,162.32H78.58l-4.9,12.61h1.54l1.18-3.07h5.68l1.17,3.07H84.8L80,162.49Zm-3,8.14,2.3-6,2.3,6Z"/><polygon class="cls-1" points="97.78 172.1 91.05 162.31 89.85 162.31 89.85 174.93 91.3 174.93 91.3 165.14 98.01 174.93 99.23 174.93 99.23 162.31 97.78 162.31 97.78 172.1"/><path class="cls-1" d="M110.78,162.13a6.5,6.5,0,1,0,6.5,6.49A6.42,6.42,0,0,0,110.78,162.13Zm0,11.57a5.08,5.08,0,1,1,5-5.08A5,5,0,0,1,110.78,173.7Z"/><polygon class="cls-1" points="120.69 163.72 124.48 163.72 124.48 174.93 125.95 174.93 125.95 163.72 129.75 163.72 129.75 162.32 120.69 162.32 120.69 163.72"/><polygon class="cls-1" points="142.67 167.75 136.18 167.75 136.18 162.31 134.73 162.31 134.73 174.93 136.18 174.93 136.18 169.15 142.67 169.15 142.67 174.93 144.12 174.93 144.12 162.31 142.67 162.31 142.67 167.75"/><polygon class="cls-1" points="151.83 169.27 157.35 169.27 157.35 167.87 151.83 167.87 151.83 163.72 157.78 163.72 157.78 162.31 150.38 162.31 150.38 174.93 157.87 174.93 157.87 173.53 151.83 173.53 151.83 169.27"/><path class="cls-1" d="M172.06,166.15a3.84,3.84,0,0,0-3.83-3.83h-5v12.61h1.45v-5H168l2.89,5h1.68l-3.07-5.19A3.84,3.84,0,0,0,172.06,166.15Zm-7.41,2.43v-4.87h3.58a2.44,2.44,0,0,1,0,4.87Z"/><polygon class="cls-1" points="187.02 162.31 185.57 162.31 185.57 174.93 192.71 174.93 192.71 173.53 187.02 173.53 187.02 162.31"/><path class="cls-1" d="M202.8,162.13a6.5,6.5,0,1,0,6.49,6.49A6.42,6.42,0,0,0,202.8,162.13Zm0,11.57a5.08,5.08,0,1,1,5-5.08A5,5,0,0,1,202.8,173.7Z"/><path class="cls-1" d="M220.67,162.13a6.5,6.5,0,1,0,6.49,6.49A6.43,6.43,0,0,0,220.67,162.13Zm0,11.57a5.08,5.08,0,1,1,5-5.08A5,5,0,0,1,220.67,173.7Z"/><polygon class="cls-1" points="234.94 168.45 241.33 162.31 239.33 162.31 233.82 167.58 233.82 162.31 232.37 162.31 232.37 174.93 233.82 174.93 233.82 169.35 239.5 174.93 241.49 174.93 234.94 168.45"/><path class="cls-1" d="M189.12,106.66a3.4,3.4,0,0,0,3.46-3.41,3.44,3.44,0,0,0-3.46-3.46,3.4,3.4,0,0,0-3.4,3.46A3.36,3.36,0,0,0,189.12,106.66Z"/><path class="cls-1" d="M20.17,113.74a13.45,13.45,0,1,0,0,23.3c1.36.78,6.73,3.43,6.73-.32V114.06C26.9,110.32,21.53,113,20.17,113.74Zm1.12,16.42a9,9,0,0,1-7.09,3.68,8.43,8.43,0,0,1-8.57-8.51,8.27,8.27,0,0,1,8.3-8.51,9.31,9.31,0,0,1,7.36,3.68Z"/><path class="cls-1" d="M159.15,113.74a13.45,13.45,0,1,0,0,23.3c1.36.78,6.73,3.43,6.73-.32V114.06C165.88,110.32,160.51,113,159.15,113.74Zm1.12,16.42a9,9,0,0,1-7.09,3.68,8.43,8.43,0,0,1-8.56-8.51,8.26,8.26,0,0,1,8.29-8.51,9.29,9.29,0,0,1,7.36,3.68Z"/><path class="cls-1" d="M217.44,113.74a13.45,13.45,0,1,0,0,23.3c1.36.78,6.73,3.43,6.73-.32V114.06C224.17,110.32,218.8,113,217.44,113.74Zm1.12,16.42a9,9,0,0,1-7.09,3.68,8.43,8.43,0,0,1-8.56-8.51,8.26,8.26,0,0,1,8.29-8.51,9.29,9.29,0,0,1,7.36,3.68Z"/><path class="cls-1" d="M63.8,126.43a8.31,8.31,0,0,0,8.34,7.8,8.88,8.88,0,0,0,5.74-1.91,2.75,2.75,0,0,1,3.58.2L83,134a13.53,13.53,0,0,1-10.88,4.83c-7.52,0-13.9-5.71-13.9-13.45a13.08,13.08,0,0,1,13.13-13.46c7.2,0,12.41,5.82,12.41,13.46a10.46,10.46,0,0,1,0,1.1Zm.08-4.39H77.94a7.22,7.22,0,0,0-6.82-5.61A7.49,7.49,0,0,0,63.88,122"/><path class="cls-1" d="M235.46,114.89a11.19,11.19,0,0,1,7.74-3c6.83,0,11.92,3.81,11.92,13.73v10.06a2.59,2.59,0,0,1-2.58,2.58h-3.06V125.33c0-5.59-2.9-8.51-6.71-8.51a9,9,0,0,0-7.15,3.68v15.16a2.58,2.58,0,0,1-2.58,2.58h-3V115a2.58,2.58,0,0,1,2.57-2.58h2.9Z"/><path class="cls-1" d="M40.1,133.57l13-16.33a5.55,5.55,0,0,0,1.21-3.47v-1.35h-18a2.67,2.67,0,0,0-2.77,2.44v4H35a2.39,2.39,0,0,0,2.27-1.73h9.63L34,133.42a5.57,5.57,0,0,0-1.2,3.46v1.36H52.51a2.79,2.79,0,0,0,2.78-2.78v-1.89Z"/><path class="cls-1" d="M175.72,106.66a3.4,3.4,0,0,0,3.46-3.41,3.44,3.44,0,0,0-3.46-3.46,3.4,3.4,0,0,0-3.4,3.46A3.36,3.36,0,0,0,175.72,106.66Z"/><path class="cls-1" d="M171.14,112.42v1.22a2.5,2.5,0,0,0,2,2.49h0v22.1H176a2.77,2.77,0,0,0,2.78-2.77v-23Z"/><path class="cls-1" d="M192.21,122.21h0v-9.79h-7.66v1.22a2.49,2.49,0,0,0,2,2.49h0v23c0,3.22-.3,5.38-4.45,8.3l3.26,4.64c6.33-4.45,6.86-8.83,6.86-12.94Z"/><path class="cls-1" d="M135.42,125.39a13.57,13.57,0,0,0-13.29-13.52,11.93,11.93,0,0,0-7.91,2.81V99.24h-2.85a2.82,2.82,0,0,0-2.79,2.78v34.7c0,3.75,4.45,1.06,5.63-.41a14.83,14.83,0,0,0,7.91,2.53A13.45,13.45,0,0,0,135.42,125.39Zm-21.2,4.77V120.5a9.29,9.29,0,0,1,7.3-3.68,8.26,8.26,0,0,1,8.26,8.51,8.39,8.39,0,0,1-8.53,8.51A9.19,9.19,0,0,1,114.22,130.16Z"/><path class="cls-1" d="M104.25,111.94c-6.61-.56-8.21,2.07-9.2,3.45v-3H92.2a2.78,2.78,0,0,0-2.78,2.78v23h2.85a2.79,2.79,0,0,0,2.78-2.78v-14.3a6.91,6.91,0,0,1,6.46-3.9,7.76,7.76,0,0,1,2.07.27Z"/></g></g></svg>